<svg xmlns="http://www.w3.org/2000/svg" width="220" height="220" viewBox="0 0 220 220"><g transform="translate(-78 -150)"><line x2="210" y2="210" transform="translate(83.5 155.5)" fill="none" stroke="#107bf8" stroke-width="8" stroke-dasharray="16 12"/><line x1="210" y2="210" transform="translate(83.5 155.5)" fill="none" stroke="#107bf8" stroke-width="8" stroke-dasharray="16 12"/><g transform="translate(-1.743 -1.743)"><circle cx="54" cy="54" r="54" transform="translate(135.743 208.743)" fill="#ffeedf"/><circle cx="41" cy="41" r="41" transform="translate(148.743 221.743)" fill="#ffa900"/><text transform="translate(189.743 275.743)" fill="#fff" font-size="36" font-family="Gilroy-Bold, Gilroy" font-weight="700"><tspan x="-22.896" y="0">6ft</tspan></text></g><path d="M0,0H32V8H8V32H0Z" transform="translate(78 150)" fill="#107bf8"/><path d="M0,32H32V24H8V0H0Z" transform="translate(78 338)" fill="#107bf8"/><path d="M32,0H0V8H24V32h8Z" transform="translate(266 150)" fill="#107bf8"/><path d="M32,32H0V24H24V0h8Z" transform="translate(266 338)" fill="#107bf8"/></g></svg>